<?xml version="1.0" standalone="no"?>
<!DOCTYPE svg PUBLIC "-//W3C//DTD SVG 20010904//EN"
 "http://www.w3.org/TR/2001/REC-SVG-20010904/DTD/svg10.dtd">
<svg version="1.0" xmlns="http://www.w3.org/2000/svg"
 width="1277.000000pt" height="1268.000000pt" viewBox="0 0 1277.000000 1268.000000"
 preserveAspectRatio="xMidYMid meet">

<g transform="translate(0.000000,1268.000000) scale(0.100000,-0.100000)"
fill="#000000" stroke="none">
<path d="M5265 12658 c-11 -6 -56 -45 -100 -88 -44 -43 -92 -84 -108 -92 -40
-20 -176 -174 -199 -224 -26 -61 -26 -128 1 -164 29 -41 26 -57 -14 -81 -41
-25 -55 -47 -55 -86 1 -44 24 -75 71 -98 36 -16 45 -26 47 -50 7 -83 32 -105
68 -59 30 37 50 26 58 -32 9 -69 27 -84 98 -84 33 0 58 3 56 8 -48 92 -88 184
-88 200 0 11 15 33 34 49 26 24 49 32 112 42 107 17 107 17 127 51 23 39 40
38 73 -5 16 -22 40 -38 63 -44 20 -5 55 -15 78 -21 23 -6 56 -22 72 -36 30
-25 30 -25 15 -67 -8 -23 -30 -70 -49 -104 -36 -66 -34 -73 21 -73 39 0 61 16
68 51 9 48 23 60 53 48 33 -12 57 6 49 37 -3 12 -3 29 0 38 5 14 8 14 29 0 14
-9 33 -12 48 -9 67 17 80 91 28 155 -17 21 -31 41 -31 44 0 3 16 12 35 20 50
21 48 56 -7 106 l-41 39 32 37 c27 30 32 42 27 68 -7 36 -47 80 -87 96 -33 14
-36 25 -13 38 11 6 14 16 10 30 -9 28 -32 35 -33 10 -2 -23 -52 -103 -60 -95
-2 3 0 15 7 26 8 15 8 21 0 21 -6 0 -8 5 -3 13 4 6 -5 4 -20 -5 -37 -25 -45
-22 -18 5 18 20 19 26 8 35 -8 7 -16 9 -19 7 -3 -3 -3 7 0 22 l5 28 -23 -20
-23 -20 8 24 c5 18 4 22 -6 16 -9 -6 -11 -4 -6 8 10 27 -9 28 -34 1 -26 -28
-70 -54 -91 -54 -7 0 1 9 18 19 71 43 92 105 53 155 -17 22 -18 26 -4 26 9 0
27 -11 40 -25 14 -13 25 -19 25 -12 1 7 8 -1 17 -17 8 -16 24 -38 34 -49 10
-11 21 -33 24 -48 4 -16 11 -27 16 -23 5 3 9 0 9 -7 0 -7 3 -9 6 -6 4 4 2 12
-4 19 -5 7 -15 32 -21 56 -26 95 -115 140 -254 127 -64 -6 -77 -4 -108 14 -37
23 -92 27 -124 9z m57 -60 l-27 -53 -63 -6 c-36 -3 -70 -13 -80 -22 -25 -23
-35 -21 -22 2 5 11 29 26 52 35 24 9 33 14 21 12 -58 -11 9 52 74 70 74 20 75
19 45 -38z m-179 -220 c9 -5 17 -13 17 -18 0 -17 -20 -11 -45 15 -28 27 -35
12 -8 -17 15 -16 15 -18 0 -18 -9 0 -20 -7 -25 -16 -8 -14 -11 -14 -26 7 -9
14 -16 18 -16 10 0 -8 7 -23 17 -33 18 -20 4 -25 -16 -5 -10 10 -11 8 -5 -7 6
-15 4 -17 -6 -11 -10 6 -12 4 -7 -11 6 -16 3 -15 -13 4 -36 43 -37 127 -2 127
6 0 22 9 34 20 13 11 34 25 48 31 24 10 25 9 31 -29 3 -22 13 -44 22 -49z
m377 10 c37 -15 63 -32 73 -50 l15 -26 -61 29 c-33 15 -81 31 -105 35 -44 7
-44 7 -21 20 32 18 33 18 99 -8z m-174 -25 c38 8 63 7 97 -2 45 -13 113 -49
106 -56 -2 -2 -31 3 -64 11 -87 20 -132 17 -205 -14 -77 -33 -185 -103 -212
-137 -21 -27 -42 -33 -36 -12 6 25 137 136 192 163 31 15 54 29 52 31 -7 7
-89 -38 -144 -79 l-53 -40 20 39 c24 49 39 61 110 94 52 24 57 25 71 9 13 -15
22 -16 66 -7z m337 -70 c4 -2 7 -11 7 -19 0 -20 -10 -17 -45 12 l-30 25 30 -7
c17 -4 33 -9 38 -11z m-743 -73 c0 -29 -4 -40 -15 -40 -8 0 -15 -5 -15 -11 0
-6 -7 -9 -15 -5 -8 3 -15 1 -15 -4 0 -6 -4 -10 -10 -10 -14 0 -12 67 3 77 6 4
19 6 28 5 9 -2 19 4 22 13 11 26 17 17 17 -25z m480 6 c-25 -7 -58 -20 -75
-30 -29 -17 -23 -17 20 0 16 5 13 0 -10 -25 -30 -33 -123 -82 -225 -120 l-55
-20 30 25 c17 13 47 40 68 59 54 51 141 106 179 115 18 4 51 8 73 8 l40 1 -45
-13z m-580 -297 c0 -8 14 -10 41 -6 48 6 59 -9 33 -47 -19 -30 -47 -28 -76 6
-19 22 -24 58 -8 58 6 0 10 -5 10 -11z"/>
<path d="M5241 12150 c-59 -33 -69 -40 -55 -40 13 0 131 69 119 70 -5 0 -34
-14 -64 -30z"/>
<path d="M3711 12006 c-9 -11 -5 -15 26 -18 45 -6 50 -3 33 17 -16 19 -44 19
-59 1z"/>
<path d="M5360 11891 c-19 -16 -31 -33 -27 -38 19 -18 138 -15 144 4 4 10 -59
63 -74 63 -4 0 -24 -14 -43 -29z"/>
<path d="M5376 11769 c2 -4 -3 -10 -12 -13 -17 -6 -10 -26 9 -26 7 0 6 4 -3
11 -12 9 -12 10 3 5 10 -3 24 -6 30 -6 7 0 6 -5 -3 -11 -12 -9 -12 -10 3 -5
10 3 24 6 30 6 7 0 6 4 -3 10 -11 7 -5 8 20 3 35 -6 35 -6 16 15 -13 15 -29
20 -56 19 -21 -1 -37 -4 -34 -8z"/>
<path d="M5450 11726 c0 -2 7 -6 15 -10 8 -3 15 -1 15 4 0 6 -7 10 -15 10 -8
0 -15 -2 -15 -4z"/>
<path d="M3705 11683 c0 -10 5 -24 9 -32 6 -9 3 -17 -8 -23 -18 -10 -22 -63
-6 -73 6 -4 8 -14 6 -23 -3 -10 -2 -23 3 -31 6 -9 2 -20 -10 -32 -24 -24 -24
-34 1 -59 11 -11 15 -22 10 -25 -14 -9 -12 -45 2 -45 7 0 2 -7 -10 -16 -24
-17 -29 -53 -10 -72 17 -17 53 -15 68 3 13 16 6 65 -10 65 -6 0 -8 11 -4 25 3
14 1 31 -5 39 -9 11 -7 15 9 19 25 6 29 64 5 73 -12 5 -13 10 -4 20 6 8 9 21
5 29 -3 9 1 27 10 40 12 18 13 28 4 44 -6 12 -16 21 -22 21 -9 0 -9 3 0 12 17
17 15 48 -2 48 -8 0 -21 2 -29 5 -9 4 -13 0 -12 -12z"/>
<path d="M3694 11215 c-4 -9 -2 -21 4 -27 16 -16 47 -5 47 17 0 26 -42 34 -51
10z"/>
<path d="M3685 11146 c-13 -19 -14 -29 -5 -45 20 -39 80 -21 80 24 0 47 -49
60 -75 21z"/>
<path d="M3694 11055 c-8 -20 4 -35 27 -35 14 0 19 7 19 25 0 18 -5 25 -20 25
-11 0 -23 -7 -26 -15z"/>
<path d="M3682 10998 c-7 -7 -12 -20 -12 -29 0 -19 -11 -24 -80 -34 -90 -14
-208 -58 -363 -136 -86 -43 -169 -79 -183 -79 -14 0 -39 9 -55 21 -32 23 -53
17 -46 -13 4 -16 3 -17 -9 -7 -8 6 -14 18 -14 25 0 8 -7 14 -15 14 -8 0 -15
-4 -15 -10 0 -5 -9 -10 -20 -10 -12 0 -20 -7 -20 -16 0 -14 -3 -14 -16 -4 -8
8 -14 25 -12 39 2 20 9 27 30 29 55 7 41 76 -15 70 -31 -3 -46 -21 -62 -73 -5
-16 -8 -17 -15 -5 -11 18 -13 15 -28 -40 -10 -41 -9 -47 8 -62 11 -9 38 -19
60 -23 22 -4 40 -11 40 -16 0 -11 -366 -1145 -380 -1176 -5 -13 -16 -23 -25
-23 -24 0 -18 -32 20 -107 108 -217 375 -302 605 -195 77 36 178 139 218 223
18 37 32 72 32 78 0 6 -18 11 -43 11 l-42 0 -158 583 c-86 321 -157 591 -157
600 0 13 9 17 34 17 53 0 160 25 273 64 155 54 215 61 513 61 295 0 355 -7
504 -60 51 -19 131 -41 176 -49 46 -9 85 -17 86 -19 2 -1 -19 -70 -46 -152
-27 -83 -106 -327 -177 -544 l-128 -393 -53 -20 c-29 -11 -52 -22 -49 -24 2
-2 22 4 45 13 23 9 44 14 47 11 3 -2 -5 -33 -16 -68 -15 -43 -28 -64 -41 -68
-16 -4 -19 -11 -14 -36 18 -89 120 -217 211 -264 141 -71 309 -69 447 5 l48
26 41 -29 c23 -16 59 -52 81 -81 30 -41 45 -53 66 -53 15 0 236 18 491 40 504
44 511 44 511 32 0 -16 -417 -172 -457 -172 -21 0 -72 6 -113 14 -183 35 -460
62 -486 48 -15 -8 -9 -11 31 -17 131 -18 232 -49 602 -186 70 -25 104 -24 166
7 89 45 287 187 287 207 0 9 -4 17 -9 17 -9 0 -134 -91 -173 -127 -23 -22 -26
-23 -25 -6 2 17 196 173 216 173 6 0 16 -19 23 -41 l12 -42 -74 -68 c-41 -38
-81 -68 -87 -69 -7 0 -61 -19 -120 -41 -96 -37 -119 -42 -213 -46 -159 -6
-169 -11 -80 -39 41 -13 92 -33 114 -45 21 -12 56 -22 77 -23 l38 -1 -26 -27
c-15 -16 -30 -28 -34 -28 -3 0 -38 18 -77 41 -42 24 -80 39 -94 37 -19 -3 -12
-10 47 -52 39 -27 74 -53 79 -57 5 -4 -20 -40 -55 -80 -65 -73 -102 -100 -419
-314 -96 -64 -182 -124 -190 -132 -13 -13 -12 -13 13 -7 27 6 27 6 15 -21 -10
-23 -10 -28 5 -36 24 -14 21 -39 -13 -104 -38 -73 -39 -87 -2 -79 21 5 -2 -21
-98 -111 -194 -182 -547 -541 -627 -636 -100 -120 -153 -198 -153 -226 0 -33
15 -28 37 12 17 34 175 227 180 221 2 -1 -11 -45 -27 -97 -16 -52 -30 -95 -30
-97 0 -2 21 12 48 29 l47 32 -61 -64 c-56 -59 -104 -132 -104 -159 0 -19 37
-10 47 13 6 12 38 60 72 105 34 46 60 90 57 97 -3 9 32 40 97 86 130 93 447
329 447 334 0 5 -47 -16 -334 -149 -126 -58 -231 -105 -232 -103 -4 3 443 468
600 625 106 105 143 126 132 75 -5 -20 3 -47 27 -93 l33 -65 29 14 c21 10 30
11 33 3 2 -7 9 -12 15 -12 7 0 39 -18 72 -41 47 -32 66 -40 90 -36 17 3 147
67 290 142 143 75 368 191 500 256 132 66 275 138 318 160 l77 40 63 -17 c34
-9 66 -20 70 -24 5 -5 -51 -58 -124 -119 -119 -99 -137 -111 -173 -112 -23 -1
-54 -4 -71 -8 -31 -7 32 -19 207 -42 37 -4 75 -13 85 -18 10 -5 83 -25 163
-43 l145 -35 -42 -12 c-47 -13 -56 -28 -20 -35 210 -41 223 -60 37 -53 l-145
6 125 -17 c69 -9 110 -18 93 -20 -31 -3 -48 -22 -20 -22 7 -1 5 -6 -5 -14 -17
-12 -16 -16 7 -60 41 -77 42 -76 -100 -76 -69 0 -125 -3 -125 -8 0 -4 4 -22 9
-40 13 -44 -3 -41 -37 8 l-27 39 -70 1 -69 0 58 -59 c74 -75 108 -91 136 -66
11 10 22 16 24 14 4 -4 46 -151 46 -162 0 -3 -23 19 -52 49 l-52 55 -25 -33
c-81 -103 -141 -194 -141 -215 0 -20 -4 -23 -20 -18 -16 5 -20 2 -20 -14 0
-11 -13 -35 -29 -53 -28 -32 -69 -104 -69 -122 0 -5 -5 -12 -10 -15 -9 -6 -52
-85 -52 -96 0 -4 38 28 85 71 l85 77 0 64 c0 34 4 63 8 63 16 0 32 -24 32 -49
0 -23 1 -23 18 -8 27 25 49 21 128 -21 l71 -38 21 37 21 36 -28 27 c-15 14
-31 26 -37 26 -5 0 2 -9 16 -20 18 -14 21 -20 9 -20 -31 0 -129 23 -129 31 0
9 91 89 102 89 4 0 8 -15 10 -32 3 -31 6 -33 54 -41 41 -7 53 -13 58 -30 7
-23 9 -21 65 49 5 6 114 157 241 335 238 332 276 379 309 379 11 0 40 -23 64
-51 35 -40 47 -64 56 -108 6 -32 9 -70 6 -87 -5 -23 2 -40 30 -78 23 -33 35
-61 35 -82 0 -36 29 -64 66 -64 23 0 64 42 64 65 0 21 -40 65 -59 65 -13 0
-21 13 -30 53 -6 28 -14 62 -17 75 -5 16 -2 22 9 22 20 0 197 90 197 100 0 5
-16 17 -35 29 -19 11 -35 24 -35 29 0 5 18 32 40 62 l40 53 35 -39 c20 -21 43
-60 52 -85 14 -38 20 -45 37 -42 47 10 48 12 21 50 -43 65 -28 153 28 153 8 0
26 18 38 40 13 23 38 50 56 62 27 16 32 24 26 42 -4 11 -6 34 -5 50 1 16 -1
26 -5 22 -8 -7 -43 23 -43 37 0 6 10 21 22 34 18 20 19 23 5 23 -13 0 -17 9
-17 35 0 45 -21 87 -54 109 -21 13 -26 25 -26 56 0 24 -5 40 -12 40 -6 0 -20
7 -30 17 -10 9 -30 18 -44 19 -34 4 -61 29 -69 64 -6 27 -7 28 -36 13 -33 -16
-69 -12 -93 12 -12 12 -20 13 -36 5 -61 -33 -150 60 -150 159 0 38 -1 40 -77
83 -65 36 -79 48 -83 73 -4 26 -10 30 -43 33 -29 3 -37 7 -37 23 0 10 -5 19
-11 19 -8 0 -8 5 1 15 10 12 8 16 -15 25 -36 14 -42 8 -56 -54 l-11 -53 162
-295 c114 -206 171 -300 189 -311 15 -9 49 -37 76 -64 28 -27 63 -55 79 -63
29 -15 126 -152 126 -178 0 -7 -6 -15 -14 -18 -8 -3 -12 -12 -9 -20 3 -8 0
-21 -7 -29 -8 -10 -9 -23 -3 -42 14 -39 6 -53 -28 -53 -24 0 -29 -4 -29 -23 0
-23 -27 -57 -46 -57 -5 0 -14 -10 -19 -21 -11 -24 -80 -67 -90 -57 -4 4 2 20
13 36 36 50 37 77 6 139 -70 138 -158 167 -176 58 -3 -18 -6 -17 -36 12 -25
24 -32 40 -32 69 0 69 -22 209 -37 239 -27 53 -148 206 -298 379 -194 223
-257 309 -377 509 -94 157 -100 170 -89 195 10 22 10 25 0 15 -21 -21 -26 -16
-45 40 -9 28 -32 87 -50 130 -18 44 -26 73 -18 66 34 -28 8 27 -97 207 -152
260 -187 327 -182 342 3 8 -8 28 -24 45 -16 18 -35 50 -42 71 l-13 39 106 211
c58 116 114 233 125 261 l19 50 16 -39 c9 -22 19 -50 23 -63 3 -14 15 -30 27
-38 33 -22 175 -80 329 -136 78 -28 146 -55 150 -59 5 -4 -8 -56 -28 -115 -28
-81 -38 -129 -42 -201 -6 -87 -7 -94 -27 -93 -15 0 -28 15 -46 52 -28 57 -79
91 -154 102 -26 4 -40 12 -43 26 -3 10 -10 19 -15 19 -5 0 -7 -8 -4 -17 2 -10
35 -121 71 -248 74 -258 118 -360 197 -453 l53 -64 9 36 c8 31 14 37 45 42 61
10 69 14 49 25 -31 17 -65 91 -113 243 -41 130 -45 152 -35 175 12 26 12 26
27 -21 7 -27 17 -48 21 -48 4 0 17 18 30 40 13 22 27 38 32 35 10 -6 16 14 24
90 9 73 22 75 28 3 6 -66 25 -117 61 -155 24 -27 39 -30 30 -7 -5 15 -3 15 25
0 l31 -16 -2 43 c-2 36 1 42 17 39 16 -3 15 1 -7 30 -35 45 -77 137 -77 168 0
20 7 13 33 -33 36 -65 83 -127 97 -127 5 0 5 13 0 31 -10 32 -4 59 12 59 5 0
-2 14 -16 30 -27 33 -39 89 -34 159 l3 44 58 -53 c103 -94 181 -232 232 -405
14 -49 27 -90 28 -92 2 -1 17 -5 33 -9 29 -5 29 -4 62 86 31 85 33 96 22 139
-24 95 -80 181 -200 305 -109 114 -113 118 -65 92 110 -63 208 -154 264 -246
26 -43 26 -38 1 35 -24 70 -24 75 -5 75 24 0 17 32 -15 70 -30 34 -38 68 -21
86 17 18 -2 74 -40 117 -52 60 -132 113 -228 152 -72 29 -85 38 -111 79 -49
77 -159 132 -310 156 -101 16 -148 12 -229 -17 -143 -52 -313 -33 -395 42
l-38 35 -62 -53 c-33 -28 -63 -53 -65 -54 -2 -2 -2 -6 1 -9 4 -3 15 -1 26 5
17 9 21 7 25 -11 4 -12 5 -23 4 -23 -1 -1 -33 -26 -72 -57 -38 -30 -105 -79
-148 -108 -43 -29 -76 -54 -74 -56 2 -2 30 7 62 20 33 13 76 27 95 30 l35 7
-50 -46 c-27 -25 -85 -71 -127 -103 -50 -37 -73 -59 -65 -64 7 -5 3 -8 -11 -8
-13 0 -42 -13 -65 -29 -171 -117 -429 -251 -484 -251 l-37 0 74 46 c41 25 79
50 84 54 4 5 -54 -14 -129 -41 -76 -27 -192 -66 -259 -86 -97 -29 -132 -45
-175 -79 -30 -24 -56 -42 -58 -40 -2 1 -18 59 -37 127 -18 68 -61 228 -96 356
-34 127 -60 239 -57 247 4 10 19 16 39 16 43 0 109 18 129 36 14 13 14 19 0
64 -8 28 -18 50 -22 50 -4 0 -10 -16 -13 -35 -4 -19 -15 -39 -24 -44 -15 -8
-17 -3 -18 39 -1 63 -25 100 -64 100 -56 0 -64 -63 -9 -74 22 -4 29 -11 29
-29 0 -21 -35 -67 -43 -56 -1 2 -9 16 -17 32 -16 33 -35 35 -44 5 l-7 -23 -9
23 c-11 27 -15 27 -52 1 l-29 -21 -177 85 c-186 90 -261 117 -379 137 -58 9
-73 15 -73 29 0 23 -20 41 -45 41 -12 0 -26 -5 -33 -12z m3203 -239 c22 -6 44
-17 50 -25 5 -7 48 -27 95 -44 118 -43 165 -81 75 -60 -22 5 -114 14 -205 20
-198 12 -248 18 -255 31 -4 5 17 9 49 9 36 0 56 4 56 12 0 17 -31 48 -49 48
-14 0 -14 2 -1 10 20 13 136 12 185 -1z m-555 -130 c-21 -45 -20 -37 1 41 9
31 14 38 16 24 2 -11 -5 -40 -17 -65z m-3305 -614 c80 -297 148 -546 150 -554
5 -12 -46 -13 -326 -8 -182 3 -333 7 -335 9 -3 3 334 1055 352 1097 3 9 8 12
10 6 2 -5 69 -253 149 -550z m1585 165 c45 -168 86 -318 91 -334 7 -23 5 -33
-8 -49 -17 -19 -17 -19 5 -13 17 6 22 3 22 -11 0 -10 9 -47 20 -81 11 -35 20
-82 20 -103 0 -22 4 -38 9 -34 16 9 18 -29 4 -46 -13 -15 -12 -17 4 -15 32 2
27 -37 -8 -63 l-31 -23 -288 3 c-159 2 -291 7 -294 10 -3 3 4 35 16 71 l21 66
51 6 c28 3 107 6 176 7 125 1 125 1 80 16 -57 19 -170 21 -238 4 -29 -7 -55
-12 -57 -10 -2 3 284 897 301 939 8 20 7 23 104 -340z m1270 -75 c0 -21 -35
-50 -106 -87 -36 -19 -60 -37 -57 -44 6 -15 -38 -43 -177 -114 -58 -29 -234
-127 -393 -217 -158 -89 -292 -163 -297 -163 -6 0 -11 9 -11 20 -1 11 -2 24
-3 29 -1 6 58 57 129 115 72 57 162 134 200 170 l70 65 -32 1 c-50 0 -187 -75
-349 -193 l-52 -37 -11 31 c-6 18 -11 35 -11 39 0 8 132 108 224 170 27 18
101 60 163 92 92 47 122 58 162 58 39 0 50 -4 54 -19 9 -34 -4 -66 -49 -127
-24 -32 -44 -62 -44 -66 0 -5 36 -8 79 -8 78 0 80 1 133 41 85 67 118 101 118
125 0 17 17 31 80 63 127 66 180 83 180 56z m-271 -31 c-15 -18 -74 -59 -141
-98 -33 -19 -48 -24 -48 -14 0 15 57 57 134 99 58 32 74 36 55 13z m-540 -58
c-2 -3 -40 -28 -84 -56 -44 -29 -112 -79 -151 -111 -58 -48 -73 -56 -78 -42
-4 9 -5 17 -4 18 2 1 35 23 73 50 83 58 226 144 239 145 5 0 7 -2 5 -4z m-200
-70 c-38 -35 -115 -96 -121 -96 -4 0 -8 9 -8 20 0 16 16 28 63 50 59 28 76 35
66 26z m220 -172 c-44 -47 -247 -214 -260 -214 -5 0 -9 9 -9 19 0 18 75 77
250 199 58 40 61 40 19 -4z m1321 -264 c6 -11 8 -20 6 -20 -3 0 -10 9 -16 20
-6 11 -8 20 -6 20 3 0 10 -9 16 -20z m-560 -16 c0 -10 -84 -134 -88 -129 -8 8
21 77 45 105 23 28 43 39 43 24z m187 -124 c-8 -67 -47 -136 -110 -197 -44
-42 -132 -92 -143 -80 -3 3 248 326 255 327 2 0 1 -23 -2 -50z m-357 -19 c-25
-48 -92 -129 -115 -139 -14 -7 -25 -8 -25 -4 0 38 126 190 143 173 5 -5 4 -18
-3 -30z m-231 -139 c-17 -27 -59 -47 -59 -28 0 14 27 41 50 48 21 7 23 3 9
-20z m309 -1 c-7 -12 -16 -21 -21 -21 -8 0 -2 14 16 38 16 20 20 6 5 -17z
m886 -257 c3 -8 2 -13 -3 -10 -5 3 -11 -1 -15 -9 -3 -8 -12 -15 -20 -15 -11 0
-9 6 7 25 26 29 23 29 31 9z m-235 -21 c24 -30 22 -39 -6 -25 -17 9 -18 7 -15
-24 3 -24 -1 -41 -14 -55 -10 -11 -19 -27 -20 -35 -1 -9 -11 -25 -21 -36 -18
-21 -18 -21 5 -9 28 15 40 7 26 -17 -8 -13 -7 -23 4 -40 19 -29 12 -35 -60
-57 -32 -10 -58 -21 -58 -24 0 -9 101 2 117 12 13 8 53 -8 53 -21 0 -4 -33
-15 -73 -25 l-72 -17 -23 27 c-37 46 -38 68 -3 109 36 40 37 67 3 72 -22 3
-22 4 -5 33 10 17 35 40 56 52 36 20 52 45 21 33 -9 -3 -2 11 16 34 17 22 35
40 40 40 5 0 18 -12 29 -27z m101 -23 c-8 -5 -24 -10 -35 -10 -17 0 -17 2 -5
10 8 5 24 10 35 10 17 0 17 -2 5 -10z m-721 -225 c-57 -57 -68 -65 -88 -57
-24 9 -24 9 10 33 39 28 132 87 139 88 3 1 -25 -28 -61 -64z m702 -135 c14
-13 13 -17 -7 -32 -29 -24 -44 -23 -44 3 0 13 -8 23 -21 26 -21 6 -21 6 2 24
25 18 32 16 70 -21z m-57 -121 c35 -10 42 -16 38 -32 -4 -15 -10 -17 -31 -12
-14 3 -50 9 -79 12 -41 4 -52 9 -48 20 3 8 6 18 6 23 0 10 64 18 68 8 2 -3 22
-12 46 -19z m1549 -179 c13 -11 28 -31 31 -45 10 -39 -17 -91 -53 -103 -30
-11 -32 -9 -54 29 -17 32 -27 39 -44 36 -17 -3 -23 1 -23 14 0 73 85 115 143
69z m-1533 -2 c0 -7 -26 -24 -56 -37 -79 -34 -174 -98 -174 -116 0 -12 15 -8
68 21 37 21 86 50 109 66 l43 29 -1 -56 -2 -57 -74 -59 c-41 -32 -83 -64 -94
-69 -10 -6 -58 -9 -105 -8 l-86 3 40 45 c21 25 49 61 60 80 16 26 52 52 139
102 127 72 133 74 133 56z m-444 -247 c-12 -19 -268 -222 -361 -287 -250 -173
-247 -160 8 31 105 79 206 157 223 173 25 25 121 91 132 92 2 0 1 -4 -2 -9z
m1244 -5 c0 -8 -5 -18 -11 -21 -5 -4 -14 -18 -20 -32 -5 -13 -15 -23 -22 -21
-19 7 -20 48 -1 69 20 22 54 25 54 5z m-1790 -60 c0 -2 -24 -20 -52 -40 l-53
-37 45 41 c40 36 60 48 60 36z m100 -50 c0 -2 -25 -23 -56 -46 -54 -41 -58
-42 -86 -28 l-30 14 57 47 c56 46 57 46 86 32 16 -9 29 -17 29 -19z m119 -50
c24 -13 24 -14 -37 -55 -77 -52 -89 -56 -107 -41 -13 11 -6 20 47 61 35 27 65
49 68 49 3 -1 16 -7 29 -14z m-305 -69 c15 -11 10 -18 -50 -70 -37 -32 -79
-74 -94 -92 -28 -36 -40 -36 -40 -1 0 18 144 176 160 176 4 0 14 -6 24 -13z
m122 -67 c11 -11 -112 -150 -133 -150 -7 0 -16 7 -21 15 -7 13 -14 14 -36 5
-15 -5 -37 -10 -49 -10 -19 1 -17 5 17 35 22 19 54 44 73 55 l33 19 -16 -31
-16 -32 38 31 c22 17 48 40 58 52 21 23 37 26 52 11z m2224 -418 c0 -5 -9 -17
-20 -27 -11 -10 -20 -24 -20 -32 0 -18 -29 -17 -36 2 -10 24 23 65 51 65 14 0
25 -4 25 -8z"/>
<path d="M5730 10879 c-52 -15 -115 -31 -140 -35 -25 -3 -70 -21 -100 -39
-181 -106 -337 -178 -510 -236 -63 -21 -107 -39 -98 -39 41 0 328 54 478 91
108 26 170 46 180 58 8 10 51 42 95 71 66 43 133 95 200 152 14 12 0 9 -105
-23z"/>
<path d="M6570 9370 c17 -32 88 -41 97 -13 5 15 -37 33 -78 33 -27 0 -29 -2
-19 -20z"/>
<path d="M4856 8836 c3 -9 17 -16 29 -16 56 0 77 -29 23 -31 l-33 -1 35 -10
c19 -6 49 -16 65 -24 35 -15 111 -20 245 -15 l95 3 -105 28 c-58 15 -132 37
-164 49 -33 12 -91 24 -128 28 -61 5 -68 4 -62 -11z"/>
<path d="M4760 8744 c-8 -3 -32 -13 -53 -21 -34 -15 -36 -18 -22 -33 13 -15
13 -19 -8 -37 -12 -11 -40 -30 -63 -41 -55 -28 -68 -45 -55 -71 6 -11 11 -38
11 -60 0 -34 -3 -41 -20 -41 -13 0 -20 -7 -20 -20 0 -27 42 -36 83 -17 67 32
81 31 168 -12 45 -23 90 -41 101 -41 17 0 14 7 -22 46 -33 36 -39 48 -29 55
16 10 159 12 159 2 0 -4 -10 -17 -22 -30 -21 -22 -21 -24 -3 -17 19 7 19 6 4
-12 -30 -36 -34 -48 -14 -40 10 4 21 2 25 -4 5 -7 31 7 74 39 37 28 77 51 89
51 20 1 20 2 4 11 -17 10 -16 12 5 35 13 13 32 24 42 24 11 0 16 3 12 7 -7 7
-398 30 -546 33 -64 1 -65 1 -37 16 16 9 110 33 210 55 166 37 186 39 241 30
34 -6 102 -15 151 -20 50 -5 109 -13 133 -17 26 -4 42 -3 42 4 0 20 -85 43
-263 71 -100 16 -211 34 -247 39 -36 6 -76 13 -90 16 -14 3 -32 3 -40 0z m275
-247 c-15 -9 -48 -11 -125 -7 l-105 5 105 6 c58 3 114 6 125 7 19 2 19 2 0
-11z m-305 -17 c-30 -4 -68 -13 -83 -19 -37 -14 -37 -14 -37 9 0 19 6 20 88
19 83 -2 85 -2 32 -9z"/>
<path d="M3862 8500 c-18 -17 -29 -30 -24 -30 4 0 14 6 22 13 7 6 -1 -7 -19
-30 -34 -44 -34 -51 -1 -33 16 9 18 8 13 -6 -5 -13 -3 -15 8 -9 36 22 139 108
139 116 0 5 -24 9 -52 9 -44 -1 -58 -5 -86 -30z"/>
<path d="M3498 8494 c6 -11 19 -27 29 -36 22 -20 115 -64 158 -74 29 -7 29 -6
-17 40 -27 26 -48 54 -48 62 0 9 -11 14 -34 14 -18 0 -48 3 -66 6 -29 6 -31 5
-22 -12z"/>
<path d="M8158 8073 c7 -3 16 -2 19 1 4 3 -2 6 -13 5 -11 0 -14 -3 -6 -6z"/>
<path d="M4510 8025 c-11 -13 -11 -26 0 -71 13 -52 12 -58 -18 -147 -36 -104
-38 -121 -17 -157 14 -25 14 -25 15 15 0 22 12 67 26 100 54 128 56 136 43
184 -12 41 -11 45 9 62 12 9 22 20 22 23 0 13 -68 5 -80 -9z"/>
<path d="M4665 8015 c48 -30 57 -31 72 -6 10 16 9 20 -10 25 -12 3 -40 6 -62
6 l-40 -1 40 -24z"/>
<path d="M4766 7434 c-6 -16 2 -18 22 -5 11 7 11 9 -1 14 -9 3 -18 -1 -21 -9z"/>
<path d="M7432 7418 c-5 -7 -596 -872 -1311 -1922 -1287 -1888 -1301 -1909
-1301 -1957 0 -41 3 -49 18 -49 13 0 382 540 1318 1931 714 1063 1303 1940
1308 1950 11 24 -16 65 -32 47z"/>
<path d="M7456 7245 c-27 -44 -28 -46 -10 -60 17 -13 20 -11 32 17 7 17 12 44
10 59 -3 29 -3 29 -32 -16z"/>
<path d="M5150 7137 c-176 -132 -363 -281 -427 -341 -77 -72 -153 -169 -177
-228 -12 -27 -27 -39 -76 -61 -60 -25 -61 -25 -54 -5 6 20 4 20 -42 -7 -84
-48 -247 -163 -299 -211 l-50 -45 48 27 c26 14 50 24 52 22 3 -2 -86 -57 -198
-122 -268 -157 -477 -296 -721 -480 -111 -84 -232 -174 -271 -200 -91 -64 -95
-67 -54 -56 64 19 69 15 48 -27 -25 -48 -24 -61 3 -65 14 -2 26 -13 32 -30 8
-22 3 -37 -32 -95 -41 -68 -76 -152 -68 -161 3 -2 48 3 101 12 53 9 99 16 103
16 4 0 7 -33 7 -72 0 -67 3 -78 38 -133 20 -33 37 -70 37 -83 0 -22 1 -22 42
8 48 35 64 37 73 10 3 -11 14 -20 24 -20 16 0 34 -11 154 -92 69 -47 102 -41
282 53 85 44 155 79 155 77 0 -2 -14 -82 -30 -177 -16 -96 -28 -176 -27 -177
1 -2 56 89 122 201 l120 203 68 27 c37 15 71 24 74 21 4 -3 0 -63 -7 -133
l-12 -128 -101 -75 c-55 -41 -127 -96 -159 -122 -33 -25 -68 -52 -79 -60 -18
-11 -11 -13 54 -10 81 4 117 -8 117 -37 0 -10 -13 -42 -30 -72 -44 -79 -42
-83 35 -76 l65 6 0 -40 c0 -22 4 -48 10 -58 6 -13 3 -56 -11 -137 -18 -108
-24 -125 -61 -178 l-41 -60 36 22 c32 20 35 21 31 5 -2 -10 -26 -135 -54 -278
-27 -143 -67 -335 -88 -427 -37 -161 -38 -168 -19 -174 10 -3 23 -2 27 3 4 4
146 235 315 513 170 277 334 545 365 595 l56 90 146 78 147 78 141 195 c77
107 140 199 140 204 0 33 -115 13 -212 -36 -26 -13 -50 -24 -53 -24 -3 0 17
36 45 80 l50 80 -57 -43 c-32 -24 -86 -56 -120 -70 l-63 -26 63 59 c61 58 61
59 27 50 -51 -14 -57 -12 -34 10 30 31 186 90 293 111 53 11 101 21 106 23 6
2 -39 4 -100 4 -85 -1 -126 -6 -182 -23 -40 -13 -73 -19 -73 -15 0 22 36 37
148 64 114 27 154 46 98 46 -36 0 -38 13 -11 51 15 19 23 40 19 51 -4 13 8 24
56 48 54 27 67 40 111 109 l50 79 57 7 c74 9 223 52 241 70 25 25 6 45 -44 45
-55 0 -126 -26 -189 -69 -31 -22 -78 -40 -144 -56 -53 -13 -116 -30 -139 -39
-33 -12 -42 -12 -46 -2 -13 33 -19 112 -13 169 l7 62 157 80 c171 87 200 108
182 131 -10 11 -7 16 15 24 43 16 165 79 212 108 46 29 72 67 57 82 -17 17
-274 -81 -401 -152 -45 -25 -51 -32 -43 -48 6 -10 10 -23 10 -28 0 -5 -44 -44
-97 -87 l-98 -78 -7 37 c-10 48 -34 84 -71 102 l-29 16 108 62 c146 83 162 94
169 117 7 22 25 30 139 63 l78 23 -103 37 c-57 20 -155 49 -217 65 -62 15
-115 30 -118 33 -6 7 201 57 343 84 83 16 106 16 230 5 76 -7 149 -15 163 -17
14 -3 -10 8 -53 24 -90 34 -102 42 -61 42 16 0 36 5 44 10 10 7 -7 8 -55 4
-50 -4 -81 -1 -110 10 -39 14 -38 15 85 16 233 2 233 10 -5 57 -115 23 -228
44 -250 48 -74 11 -147 27 -143 31 2 2 53 -5 114 -16 116 -20 400 -54 549 -66
85 -7 88 -8 48 -16 -60 -13 -58 -38 1 -38 34 0 46 -4 49 -17 3 -10 17 -68 32
-130 l27 -111 78 96 c111 137 258 281 269 263 12 -19 31 -5 31 24 0 14 7 26
18 29 16 5 122 145 122 160 0 15 -38 3 -82 -26 -81 -51 -158 -36 -313 60 -34
21 -54 28 -65 22 -45 -24 -790 -175 -823 -166 -10 2 -66 -7 -125 -20 -59 -13
-115 -24 -124 -24 -10 0 -18 -4 -18 -10 0 -5 -30 -24 -67 -42 -83 -40 -94 -69
-43 -111 39 -34 86 -42 163 -29 50 8 86 6 182 -10 65 -10 120 -20 122 -22 1
-1 -41 -11 -95 -21 -53 -10 -149 -31 -212 -46 -63 -16 -133 -29 -155 -29 -38
1 -39 1 -20 16 18 15 13 16 -71 10 -52 -4 -111 -2 -135 4 -24 5 -61 12 -81 15
-21 3 -38 9 -38 13 0 4 52 20 115 36 63 16 115 33 115 37 0 8 -19 14 -65 21
-31 5 -29 35 4 74 41 46 40 79 -1 116 -26 23 -30 30 -18 35 92 37 203 106 255
158 58 58 63 60 184 97 68 21 179 49 245 63 184 39 204 45 121 39 -81 -7 -220
-34 -353 -69 -52 -14 -97 -25 -100 -24 -18 2 143 52 223 70 142 31 282 77 311
102 l27 23 -219 134 c-121 73 -221 134 -224 135 -3 2 -30 -16 -60 -38z m-1110
-1213 c0 -19 -8 -28 -37 -40 -220 -90 -350 -154 -468 -229 -44 -27 -19 -4 45
42 132 96 435 268 452 257 4 -3 8 -16 8 -30z m-69 -250 c-5 -20 -30 -37 -111
-80 -58 -30 -100 -50 -93 -43 9 9 204 147 210 149 1 0 -2 -12 -6 -26z m5 -109
c4 -14 5 -27 3 -29 -2 -2 -40 -27 -84 -56 -44 -29 -146 -100 -227 -157 -81
-57 -150 -103 -154 -103 -20 0 427 369 448 370 4 0 10 -11 14 -25z m-1 -151
l-7 -65 -139 -105 c-196 -148 -364 -289 -431 -364 -32 -35 -58 -67 -58 -71 0
-4 7 -10 16 -13 10 -4 36 13 75 47 55 49 173 127 191 127 4 0 -6 -19 -21 -42
-16 -24 -28 -45 -25 -47 2 -2 32 23 66 55 74 69 256 222 279 234 14 8 14 2 6
-50 -10 -58 -11 -60 -84 -116 -71 -54 -193 -178 -193 -195 0 -5 -14 -15 -30
-24 -33 -17 -70 -7 -70 20 0 19 1 19 -51 -5 -24 -11 -66 -20 -92 -20 -40 0
-53 5 -78 29 -51 52 -44 67 109 223 190 194 531 481 541 456 2 -5 0 -39 -4
-74z m-77 -461 c-3 -15 -171 -131 -192 -132 -5 -1 33 33 85 74 52 40 98 74
102 75 5 0 7 -8 5 -17z m1127 -499 c-52 -47 -169 -141 -243 -195 -78 -57 -32
-2 59 71 48 39 91 76 95 82 7 12 -44 -17 -98 -54 -16 -11 -28 -17 -28 -13 0 3
12 24 28 47 20 32 44 49 97 74 39 18 86 33 105 33 l35 0 -50 -45z"/>
<path d="M7285 6970 c-5 -8 -31 -51 -58 -95 l-49 -80 41 45 c46 50 84 115 78
133 -2 7 -6 6 -12 -3z"/>
<path d="M6183 6950 c-22 -9 -30 -30 -17 -42 7 -8 94 22 94 32 0 19 -42 24
-77 10z"/>
<path d="M4368 6855 c-9 -16 -49 -75 -89 -130 -68 -95 -119 -185 -119 -212 0
-29 30 -10 56 35 15 26 51 83 79 127 70 106 97 162 93 188 -3 20 -5 20 -20 -8z"/>
<path d="M5499 6666 c-25 -7 -61 -22 -80 -34 l-34 -22 46 0 c57 0 143 26 165
51 16 18 16 19 -17 18 -19 0 -55 -6 -80 -13z"/>
<path d="M5179 6649 c-14 -14 -18 -24 -11 -31 14 -14 66 12 70 35 5 24 -33 22
-59 -4z"/>
<path d="M5185 6524 c-48 -10 -185 -57 -185 -63 0 -12 153 10 188 26 17 8 32
22 32 29 0 8 -3 13 -7 13 -5 -1 -17 -3 -28 -5z"/>
<path d="M6782 6153 c-61 -98 -160 -256 -219 -351 -179 -285 -248 -403 -283
-481 -18 -41 -69 -143 -113 -225 -156 -297 -428 -836 -573 -1136 -182 -378
-534 -1134 -534 -1147 0 -3 19 9 42 26 24 18 44 27 46 22 6 -18 -40 -178 -79
-272 -21 -52 -39 -99 -39 -102 0 -4 11 0 24 8 l24 16 56 -105 c31 -57 56 -109
56 -114 0 -10 -508 -352 -761 -512 l-116 -74 47 -58 c47 -58 93 -141 105 -189
5 -21 1 -27 -22 -38 -87 -39 -143 -102 -143 -162 0 -48 33 -98 70 -105 26 -6
29 -9 23 -38 -3 -17 -6 -35 -7 -39 0 -5 26 -19 60 -31 33 -12 78 -33 99 -46
32 -20 56 -25 131 -28 104 -5 174 11 263 59 30 16 55 28 56 26 1 -1 11 -15 22
-32 11 -16 25 -43 30 -60 9 -27 13 -29 46 -27 29 3 42 -2 63 -23 38 -38 29
-86 -34 -183 -78 -120 -77 -163 3 -178 66 -12 130 18 160 76 18 34 20 103 4
132 -10 19 -9 20 21 13 26 -6 37 -2 60 20 26 25 30 26 51 12 13 -8 47 -18 74
-22 28 -3 57 -12 66 -18 23 -18 40 -53 33 -71 -4 -10 -1 -16 8 -16 15 0 58
-40 58 -54 0 -5 -15 -38 -32 -74 -35 -71 -47 -159 -34 -247 7 -40 10 -45 34
-45 55 -1 94 -39 136 -133 27 -62 66 -107 92 -107 9 0 27 11 40 25 31 34 71
42 106 22 27 -15 28 -15 44 13 10 15 28 33 41 39 21 10 25 8 33 -15 6 -14 10
-28 10 -31 0 -14 43 -62 51 -57 6 3 9 29 7 57 l-3 52 48 -3 c30 -2 73 5 114
19 123 41 243 23 338 -49 l50 -38 39 28 c23 17 52 28 71 28 30 0 31 2 27 31
-3 22 2 37 19 55 28 30 67 31 103 3 l26 -20 0 29 c0 27 4 31 43 40 84 22 144
82 156 159 5 32 12 37 71 62 62 26 65 30 71 67 3 21 10 49 17 61 9 15 9 29 2
49 -6 14 -8 42 -4 61 8 41 72 113 101 113 17 0 13 7 -22 43 -54 53 -67 113
-39 173 13 28 15 39 6 42 -22 7 -42 60 -42 109 0 131 171 272 329 273 36 1 42
3 28 11 -24 14 -47 62 -47 99 0 47 24 94 75 149 l47 50 -20 85 -19 86 58 11
59 12 0 59 0 60 -89 -7 c-88 -7 -124 0 -143 29 -14 20 -8 55 12 74 19 17 19
20 4 73 l-16 55 -76 -1 -77 0 -22 45 c-13 24 -23 60 -23 78 0 37 -7 36 85 20
17 -3 20 2 19 38 0 23 -6 55 -13 72 -11 26 -19 30 -62 36 l-49 7 0 43 c0 56
48 153 99 199 47 42 113 82 189 113 l57 24 -42 0 c-23 0 -54 5 -68 12 -49 22
-72 101 -39 129 15 12 13 15 -22 25 l-39 11 -3 59 c-2 32 -7 63 -13 70 -12 14
-1 23 68 58 65 33 124 84 122 105 -3 19 124 157 164 178 16 8 42 15 58 15 16
1 33 7 37 14 4 7 24 24 44 37 29 20 45 24 76 20 55 -7 82 9 82 51 0 66 -70 89
-122 39 -15 -15 -28 -32 -28 -38 0 -7 -12 -10 -30 -7 -33 5 -44 -5 -367 -322
l-132 -130 -25 23 c-36 34 -59 100 -55 159 l4 50 -27 -20 c-32 -22 -86 -33
-121 -24 -38 9 -87 65 -93 107 l-6 37 -45 -20 c-25 -11 -48 -16 -52 -11 -4 4
-22 118 -40 253 -18 135 -53 373 -77 529 -24 157 -41 288 -37 292 5 4 94 54
199 111 189 102 190 103 145 104 -26 1 -77 11 -116 23 -38 12 -86 23 -106 24
l-35 1 0 47 c1 40 -6 56 -47 116 -99 144 -81 192 182 466 100 103 181 190 181
194 0 3 -10 -3 -22 -14 -59 -54 -318 -199 -332 -186 -11 12 -6 99 9 148 l14
49 -123 -123 c-101 -101 -125 -120 -129 -105 -3 11 -24 94 -46 186 l-40 167
89 183 c87 181 122 258 116 258 -2 0 -53 -80 -114 -177z m63 -613 c-26 -27
-52 -47 -58 -43 -10 6 -7 10 53 57 62 48 63 45 5 -14z m-40 -435 c14 -88 46
-248 70 -355 82 -365 127 -623 155 -885 11 -104 25 -217 30 -250 14 -87 11
-90 -11 -10 -10 39 -25 126 -34 195 -18 138 -40 243 -56 269 -10 16 -4 -286 8
-359 8 -52 -12 -26 -30 40 -43 153 -62 294 -77 570 -16 294 -50 586 -85 719
-18 70 -65 394 -64 441 1 59 66 -199 94 -375z m-370 -260 l-7 -456 -37 -15
c-20 -9 -47 -20 -61 -25 -24 -10 -24 -10 15 -28 67 -31 81 -55 77 -133 l-4
-67 -66 -22 c-90 -29 -198 -84 -249 -125 -23 -19 -44 -34 -47 -34 -3 0 -6 19
-6 43 0 30 31 125 104 319 122 323 147 398 175 534 11 56 23 108 26 117 4 8
-2 22 -11 32 -16 16 -16 22 10 113 29 101 75 216 84 208 2 -3 1 -210 -3 -461z
m-321 -546 c-32 -85 -61 -158 -65 -163 -5 -6 -9 8 -9 32 0 31 16 73 62 166 34
69 64 124 65 122 2 -1 -22 -72 -53 -157z m719 -419 c20 -63 38 -132 42 -152 6
-34 5 -36 -14 -31 -12 3 -25 13 -30 22 -13 25 -30 109 -36 175 -3 33 -14 73
-24 90 -18 28 -52 141 -50 162 2 23 82 -165 112 -266z m-415 -81 l-3 -220 -35
-30 c-28 -24 -248 -174 -297 -203 -9 -5 -13 1 -13 21 0 23 17 42 94 106 52 43
103 88 113 100 l18 21 -36 -21 c-20 -11 -48 -28 -62 -38 -33 -21 -34 -13 -6
32 23 37 16 53 -24 53 -17 0 -17 16 -1 68 2 7 -17 -1 -42 -19 -25 -17 -47 -29
-50 -26 -3 2 -7 27 -11 56 -6 55 8 86 79 167 51 58 214 152 266 154 11 0 13
-40 10 -221z m-13 -768 c-3 -3 -92 -7 -197 -9 l-191 -4 21 27 c12 15 22 41 22
56 0 24 17 43 118 123 64 53 142 116 172 140 l55 46 3 -187 c1 -102 0 -188 -3
-192z m4 -351 c1 -26 4 -31 13 -22 18 18 66 15 76 -5 5 -10 14 -40 21 -67 19
-79 54 -135 151 -246 81 -93 140 -181 140 -209 0 -17 -182 -45 -300 -45 -103
-1 -120 2 -165 24 l-50 25 -46 142 c-52 159 -81 206 -165 272 -30 24 -60 54
-65 68 -12 33 -11 80 2 89 8 5 8 8 0 13 -8 5 -8 16 0 42 7 19 13 35 13 36 1 1
60 -4 131 -12 72 -8 139 -15 150 -15 17 0 25 16 50 102 l30 103 6 -130 c4 -72
7 -146 8 -165z m-848 117 c-8 -8 -11 -7 -11 4 0 20 13 34 18 19 3 -7 -1 -17
-7 -23z m43 -39 c5 -21 3 -28 -8 -28 -21 0 -29 17 -21 47 7 29 19 21 29 -19z
m-113 -35 c23 -37 34 -103 17 -103 -4 0 -8 -4 -8 -8 0 -5 13 -7 28 -4 23 3 30
-1 40 -23 7 -15 11 -29 10 -30 -130 -92 -142 -99 -150 -85 -5 8 -31 55 -59
105 l-51 89 22 18 c33 27 42 23 73 -33 16 -28 31 -48 34 -45 3 3 -8 29 -25 58
l-30 52 31 23 c18 12 35 22 39 23 3 0 17 -17 29 -37z m49 -83 c0 -5 -4 -10
-10 -10 -5 0 -10 5 -10 10 0 6 5 10 10 10 6 0 10 -4 10 -10z m-255 -92 c37
-80 54 -148 37 -148 -19 0 -152 164 -141 175 6 6 18 0 35 -20 l25 -30 -18 33
c-18 33 -18 34 1 48 11 8 22 14 24 14 2 0 18 -33 37 -72z m350 62 c3 -5 1 -10
-4 -10 -6 0 -11 5 -11 10 0 6 2 10 4 10 3 0 8 -4 11 -10z"/>
<path d="M5930 5844 c-105 -50 -208 -91 -330 -133 l-106 -36 106 3 c58 1 129
10 158 18 29 9 56 14 59 11 3 -3 -4 -32 -15 -65 l-19 -58 28 4 c30 4 45 24
129 172 24 41 50 85 58 98 8 12 13 22 11 21 -2 0 -38 -16 -79 -35z"/>
<path d="M5534 5606 c-111 -40 -244 -104 -244 -116 0 -13 79 -57 115 -65 20
-5 26 -4 16 3 -9 7 -1 11 31 16 33 5 50 14 66 36 12 16 22 32 22 35 0 3 -30 3
-67 1 l-68 -5 76 15 c70 14 81 20 125 65 26 27 42 49 34 49 -8 -1 -56 -16
-106 -34z"/>
<path d="M5770 5540 c-8 -5 -12 -12 -9 -15 4 -3 12 1 19 10 14 17 11 19 -10 5z"/>
<path d="M5448 5413 c7 -3 16 -2 19 1 4 3 -2 6 -13 5 -11 0 -14 -3 -6 -6z"/>
<path d="M7185 5403 c-43 -23 -113 -81 -126 -105 -9 -18 -3 -16 48 11 65 35
133 87 133 102 0 13 -21 10 -55 -8z"/>
<path d="M5355 5364 c-38 -19 -64 -44 -47 -44 20 0 92 39 92 50 0 14 -10 12
-45 -6z"/>
<path d="M7136 5230 c-25 -27 -46 -51 -46 -53 0 -2 11 -2 25 1 39 7 110 102
76 102 -4 0 -29 -22 -55 -50z"/>
<path d="M7289 5257 c-20 -14 -34 -32 -35 -45 -1 -12 -9 -31 -18 -41 -16 -17
-15 -18 9 -14 22 5 25 2 25 -21 0 -15 4 -36 10 -46 8 -15 1 -25 -44 -59 -83
-64 -99 -89 -28 -43 68 44 127 59 192 48 35 -5 39 -4 33 11 -3 10 -19 32 -36
50 -29 31 -31 45 -11 97 5 12 0 16 -21 16 -26 0 -27 2 -22 35 7 42 -5 45 -54
12z"/>
<path d="M5419 5210 c-24 -19 -24 -19 -3 -20 24 0 50 25 36 34 -6 3 -21 -3
-33 -14z"/>
<path d="M5585 5211 l-40 -19 42 -1 c33 -1 45 4 53 19 14 26 -1 26 -55 1z"/>
<path d="M5360 5117 c-57 -19 -61 -22 -35 -25 37 -4 107 18 113 36 5 16 -1 15
-78 -11z"/>
<path d="M5375 5052 c-127 -42 -157 -70 -117 -104 30 -26 54 -29 124 -17 62
11 71 16 90 47 21 34 21 35 2 49 -19 14 -18 15 5 34 l23 19 -23 0 c-13 0 -60
-13 -104 -28z"/>
<path d="M5503 4097 c-55 -89 -203 -326 -328 -527 -276 -443 -569 -944 -554
-949 24 -8 67 42 135 155 628 1052 866 1465 852 1479 -2 2 -49 -69 -105 -158z"/>
<path d="M7975 4043 c-11 -2 -28 -21 -39 -42 -16 -34 -17 -44 -6 -76 7 -20 18
-39 26 -42 8 -3 14 -10 14 -17 0 -20 86 -13 110 9 32 29 50 68 39 86 -5 8 -9
24 -9 36 0 39 -64 61 -135 46z"/>
<path d="M8392 3672 c-18 -2 -30 -7 -27 -12 3 -5 -1 -20 -10 -34 -22 -33 -14
-92 16 -119 15 -14 39 -23 67 -24 36 -2 48 2 68 24 13 14 24 32 24 39 0 8 4
14 9 14 6 0 3 16 -5 35 -8 19 -11 35 -8 35 4 0 -1 9 -10 19 -18 20 -66 28
-124 23z"/>
<path d="M8650 3560 c-8 -5 -32 -10 -52 -10 -35 0 -38 -2 -38 -27 0 -22 -37
-90 -60 -113 -12 -11 -11 -73 1 -101 9 -23 9 -36 1 -54 -10 -22 -9 -25 8 -25
13 0 20 -7 20 -19 0 -11 15 -28 36 -40 20 -12 38 -30 41 -41 4 -14 12 -19 27
-15 71 14 114 15 124 2 12 -14 82 -11 82 4 0 4 22 30 49 56 35 34 51 60 56 86
6 28 12 37 28 37 19 0 19 1 3 19 -22 24 -58 143 -47 154 12 12 -38 66 -77 82
-24 11 -39 12 -56 4 -17 -8 -29 -8 -44 0 -25 14 -82 14 -102 1z"/>
<path d="M7955 3363 c-27 -6 -57 -72 -49 -109 3 -16 15 -40 27 -54 30 -34 99
-38 130 -7 35 35 48 66 37 87 -6 10 -10 27 -10 38 0 11 -6 25 -14 31 -15 13
-87 21 -121 14z"/>
<path d="M9760 2667 c-30 -15 -50 -51 -50 -90 0 -20 -6 -30 -19 -34 -11 -3
-21 -17 -24 -33 -4 -20 -64 -80 -216 -220 -116 -106 -211 -195 -211 -198 0 -2
20 14 44 36 63 58 159 127 247 178 49 28 102 71 152 124 42 44 92 87 110 94
17 8 45 19 60 25 32 13 42 31 33 66 -11 45 -82 75 -126 52z"/>
<path d="M8260 2549 c-14 -6 -37 -9 -51 -7 -22 3 -25 1 -21 -18 2 -13 -5 -36
-17 -53 -12 -16 -21 -34 -21 -41 0 -6 -4 -8 -10 -5 -13 8 -13 -71 0 -96 8 -13
7 -25 0 -39 -8 -16 -8 -20 4 -20 8 0 17 -9 21 -19 3 -11 15 -23 26 -26 11 -4
26 -17 34 -29 14 -21 20 -22 68 -15 38 6 55 5 65 -4 13 -14 72 -11 72 3 0 4
18 25 40 48 22 22 43 54 46 71 4 17 12 31 19 31 9 0 5 18 -12 61 -14 34 -22
70 -20 81 11 40 -75 99 -114 78 -13 -7 -25 -7 -38 0 -24 12 -58 12 -91 -1z"/>
<path d="M4173 2373 c-6 -15 -41 -92 -78 -171 l-68 -143 21 -15 c31 -22 45
-50 33 -71 -5 -10 -27 -36 -48 -59 -39 -40 -63 -98 -63 -148 0 -14 3 -26 6
-26 4 0 47 30 95 66 l89 66 0 102 0 101 -26 -40 -25 -40 6 40 c3 22 22 112 40
199 33 153 39 199 18 139z"/>
<path d="M4660 2244 l-45 -47 48 32 c26 18 47 38 47 46 0 8 -1 15 -3 15 -2 0
-23 -21 -47 -46z"/>
<path d="M8762 2034 c-29 -19 -55 -34 -59 -34 -4 0 -25 9 -48 20 -94 46 -200
46 -303 -1 -53 -23 -158 -29 -205 -10 l-27 11 15 -30 c18 -34 20 -93 4 -123
-7 -12 -34 -53 -62 -90 -27 -38 -53 -83 -57 -100 -4 -18 -11 -31 -16 -30 -5 1
-23 5 -39 9 l-30 7 24 -26 c20 -22 22 -29 11 -42 -9 -11 -11 -32 -6 -71 4 -37
3 -61 -5 -70 -9 -11 -8 -18 4 -32 23 -25 47 -87 47 -119 0 -15 -9 -47 -20 -71
l-19 -43 34 7 c33 6 36 4 50 -30 8 -19 15 -46 15 -58 0 -19 16 -32 81 -68 90
-49 129 -94 129 -146 l0 -32 37 19 c26 13 58 19 106 19 44 0 79 6 100 16 51
27 85 20 131 -25 31 -30 45 -38 56 -31 8 5 36 10 62 10 71 0 95 13 107 57 14
50 18 55 71 88 25 15 57 39 73 53 l27 26 30 -29 c23 -22 30 -25 30 -12 0 21
14 21 75 1 38 -14 52 -15 67 -5 16 10 29 8 73 -10 47 -19 57 -20 84 -9 73 30
35 110 -51 110 -22 0 -92 -5 -154 -12 -63 -6 -117 -9 -120 -5 -3 3 3 26 15 51
12 24 28 75 34 112 7 37 17 69 22 70 6 1 27 5 49 9 l38 6 -25 27 c-36 39 -50
70 -101 233 -48 151 -49 166 -13 207 l20 22 -40 0 c-38 0 -40 2 -52 39 -19 64
-79 106 -176 123 -11 2 -24 13 -30 24 -10 21 -11 21 -63 -12z"/>
<path d="M9790 2001 c-15 -4 -29 -18 -35 -35 -13 -38 14 -58 75 -54 43 3 45 4
48 37 2 18 0 37 -5 41 -13 12 -56 18 -83 11z"/>
<path d="M9770 1761 c0 -16 19 -23 40 -16 30 10 24 25 -10 25 -16 0 -30 -4
-30 -9z"/>
<path d="M9638 1709 c-25 -14 -22 -41 7 -73 34 -37 88 -34 93 4 5 44 -63 91
-100 69z"/>
<path d="M7037 130 c3 -11 9 -22 13 -25 5 -3 6 4 3 15 -3 11 -9 22 -13 25 -5
3 -6 -4 -3 -15z"/>
</g>
</svg>
